<mxfile host="app.diagrams.net" modified="2022-05-07T10:52:20.519Z" agent="5.0 (Macintosh; Intel Mac OS X 10_15_7) AppleWebKit/537.36 (KHTML, like Gecko) Chrome/101.0.4951.54 Safari/537.36" etag="HYrHfAV_j2aG1mKihYbe" version="17.4.6" type="github">
  <diagram id="Uj9h9DkBMi4RGe9ZGqF9" name="Page-1">
    <mxGraphModel dx="1768" dy="801" grid="1" gridSize="10" guides="1" tooltips="1" connect="1" arrows="1" fold="1" page="1" pageScale="1" pageWidth="850" pageHeight="1100" math="0" shadow="0">
      <root>
        <mxCell id="0" />
        <mxCell id="1" parent="0" />
        <mxCell id="7_8eXOoVmeDTYa2T2Ox9-1" value="Concept" style="ellipse;whiteSpace=wrap;html=1;aspect=fixed;" parent="1" vertex="1">
          <mxGeometry x="250" y="400" width="80" height="80" as="geometry" />
        </mxCell>
        <mxCell id="7_8eXOoVmeDTYa2T2Ox9-2" value="Rule" style="ellipse;whiteSpace=wrap;html=1;aspect=fixed;" parent="1" vertex="1">
          <mxGeometry x="250" y="250" width="80" height="80" as="geometry" />
        </mxCell>
        <mxCell id="7_8eXOoVmeDTYa2T2Ox9-3" value="RuleCollection" style="ellipse;whiteSpace=wrap;html=1;aspect=fixed;" parent="1" vertex="1">
          <mxGeometry x="250" y="90" width="80" height="80" as="geometry" />
        </mxCell>
        <mxCell id="7_8eXOoVmeDTYa2T2Ox9-4" value="RuleMeta" style="ellipse;whiteSpace=wrap;html=1;aspect=fixed;" parent="1" vertex="1">
          <mxGeometry x="440" y="90" width="80" height="80" as="geometry" />
        </mxCell>
        <mxCell id="7_8eXOoVmeDTYa2T2Ox9-5" value="" style="endArrow=classic;html=1;rounded=0;exitX=0.5;exitY=1;exitDx=0;exitDy=0;entryX=0.5;entryY=0;entryDx=0;entryDy=0;" parent="1" source="7_8eXOoVmeDTYa2T2Ox9-3" target="7_8eXOoVmeDTYa2T2Ox9-2" edge="1">
          <mxGeometry width="50" height="50" relative="1" as="geometry">
            <mxPoint x="400" y="440" as="sourcePoint" />
            <mxPoint x="450" y="390" as="targetPoint" />
          </mxGeometry>
        </mxCell>
        <mxCell id="7_8eXOoVmeDTYa2T2Ox9-6" value="" style="endArrow=classic;html=1;rounded=0;exitX=0.5;exitY=1;exitDx=0;exitDy=0;entryX=0.5;entryY=0;entryDx=0;entryDy=0;" parent="1" source="7_8eXOoVmeDTYa2T2Ox9-2" target="7_8eXOoVmeDTYa2T2Ox9-1" edge="1">
          <mxGeometry width="50" height="50" relative="1" as="geometry">
            <mxPoint x="300" y="180" as="sourcePoint" />
            <mxPoint x="300" y="260" as="targetPoint" />
          </mxGeometry>
        </mxCell>
        <mxCell id="7_8eXOoVmeDTYa2T2Ox9-7" value="IndexedName" style="ellipse;whiteSpace=wrap;html=1;aspect=fixed;" parent="1" vertex="1">
          <mxGeometry x="370" y="560" width="80" height="80" as="geometry" />
        </mxCell>
        <mxCell id="7_8eXOoVmeDTYa2T2Ox9-10" value="" style="edgeStyle=segmentEdgeStyle;endArrow=classic;html=1;rounded=0;exitX=1;exitY=0.5;exitDx=0;exitDy=0;entryX=0.5;entryY=0;entryDx=0;entryDy=0;" parent="1" source="7_8eXOoVmeDTYa2T2Ox9-1" target="7_8eXOoVmeDTYa2T2Ox9-7" edge="1">
          <mxGeometry width="50" height="50" relative="1" as="geometry">
            <mxPoint x="400" y="440" as="sourcePoint" />
            <mxPoint x="450" y="390" as="targetPoint" />
          </mxGeometry>
        </mxCell>
        <mxCell id="7_8eXOoVmeDTYa2T2Ox9-12" value="" style="endArrow=classic;html=1;rounded=0;entryX=0;entryY=0.5;entryDx=0;entryDy=0;exitX=1;exitY=0.5;exitDx=0;exitDy=0;" parent="1" source="7_8eXOoVmeDTYa2T2Ox9-3" target="7_8eXOoVmeDTYa2T2Ox9-4" edge="1">
          <mxGeometry width="50" height="50" relative="1" as="geometry">
            <mxPoint x="400" y="440" as="sourcePoint" />
            <mxPoint x="450" y="390" as="targetPoint" />
          </mxGeometry>
        </mxCell>
        <mxCell id="7_8eXOoVmeDTYa2T2Ox9-13" value="&lt;font color=&quot;#2b32ff&quot;&gt;EntityGroup&lt;/font&gt;" style="ellipse;whiteSpace=wrap;html=1;aspect=fixed;strokeColor=#2B32FF;" parent="1" vertex="1">
          <mxGeometry x="100" y="400" width="80" height="80" as="geometry" />
        </mxCell>
        <mxCell id="7_8eXOoVmeDTYa2T2Ox9-14" value="" style="endArrow=classic;html=1;rounded=0;fontSize=8;fontColor=#2B32FF;exitX=1;exitY=0.5;exitDx=0;exitDy=0;entryX=0;entryY=0.5;entryDx=0;entryDy=0;" parent="1" source="7_8eXOoVmeDTYa2T2Ox9-13" target="7_8eXOoVmeDTYa2T2Ox9-1" edge="1">
          <mxGeometry width="50" height="50" relative="1" as="geometry">
            <mxPoint x="280" y="440" as="sourcePoint" />
            <mxPoint x="330" y="390" as="targetPoint" />
          </mxGeometry>
        </mxCell>
        <mxCell id="7_8eXOoVmeDTYa2T2Ox9-18" value="rule creation" style="shape=hexagon;perimeter=hexagonPerimeter2;whiteSpace=wrap;html=1;fixedSize=1;fontSize=14;fontColor=#2B32FF;strokeColor=#2B32FF;" parent="1" vertex="1">
          <mxGeometry x="-40" y="250" width="120" height="80" as="geometry" />
        </mxCell>
        <mxCell id="7_8eXOoVmeDTYa2T2Ox9-19" value="" style="edgeStyle=segmentEdgeStyle;endArrow=classic;html=1;rounded=0;fontSize=14;fontColor=#2B32FF;entryX=0.5;entryY=1;entryDx=0;entryDy=0;exitX=0;exitY=0.5;exitDx=0;exitDy=0;" parent="1" source="7_8eXOoVmeDTYa2T2Ox9-13" target="7_8eXOoVmeDTYa2T2Ox9-18" edge="1">
          <mxGeometry width="50" height="50" relative="1" as="geometry">
            <mxPoint x="400" y="420" as="sourcePoint" />
            <mxPoint x="450" y="370" as="targetPoint" />
          </mxGeometry>
        </mxCell>
        <mxCell id="7_8eXOoVmeDTYa2T2Ox9-20" value="" style="endArrow=classic;html=1;rounded=0;fontSize=14;fontColor=#2B32FF;exitX=1;exitY=0.5;exitDx=0;exitDy=0;entryX=0;entryY=0.5;entryDx=0;entryDy=0;" parent="1" source="7_8eXOoVmeDTYa2T2Ox9-18" target="7_8eXOoVmeDTYa2T2Ox9-2" edge="1">
          <mxGeometry width="50" height="50" relative="1" as="geometry">
            <mxPoint x="400" y="420" as="sourcePoint" />
            <mxPoint x="450" y="370" as="targetPoint" />
          </mxGeometry>
        </mxCell>
        <mxCell id="7_8eXOoVmeDTYa2T2Ox9-21" value="" style="edgeStyle=elbowEdgeStyle;elbow=horizontal;endArrow=classic;html=1;rounded=0;fontSize=14;fontColor=#2B32FF;exitX=1;exitY=0.5;exitDx=0;exitDy=0;entryX=0.075;entryY=0.125;entryDx=0;entryDy=0;entryPerimeter=0;" parent="1" source="7_8eXOoVmeDTYa2T2Ox9-18" target="7_8eXOoVmeDTYa2T2Ox9-1" edge="1">
          <mxGeometry width="50" height="50" relative="1" as="geometry">
            <mxPoint x="400" y="420" as="sourcePoint" />
            <mxPoint x="450" y="370" as="targetPoint" />
            <Array as="points">
              <mxPoint x="200" y="350" />
            </Array>
          </mxGeometry>
        </mxCell>
        <mxCell id="7_8eXOoVmeDTYa2T2Ox9-22" value="" style="edgeStyle=segmentEdgeStyle;endArrow=classic;html=1;rounded=0;fontSize=14;fontColor=#2B32FF;entryX=0.5;entryY=1;entryDx=0;entryDy=0;exitX=0.5;exitY=1;exitDx=0;exitDy=0;" parent="1" source="7_8eXOoVmeDTYa2T2Ox9-1" target="7_8eXOoVmeDTYa2T2Ox9-18" edge="1">
          <mxGeometry width="50" height="50" relative="1" as="geometry">
            <mxPoint x="110" y="450" as="sourcePoint" />
            <mxPoint x="30" y="340" as="targetPoint" />
            <Array as="points">
              <mxPoint x="290" y="510" />
              <mxPoint x="20" y="510" />
            </Array>
          </mxGeometry>
        </mxCell>
        <mxCell id="ToCziA8nSgazayNwWKZx-1" value="Admission" style="ellipse;whiteSpace=wrap;html=1;aspect=fixed;" vertex="1" parent="1">
          <mxGeometry x="-110" y="760" width="80" height="80" as="geometry" />
        </mxCell>
        <mxCell id="ToCziA8nSgazayNwWKZx-2" value="Diagnosis" style="ellipse;whiteSpace=wrap;html=1;aspect=fixed;fillColor=#f8cecc;strokeColor=#b85450;" vertex="1" parent="1">
          <mxGeometry x="40" y="660" width="80" height="80" as="geometry" />
        </mxCell>
        <mxCell id="ToCziA8nSgazayNwWKZx-3" value="Item1" style="ellipse;whiteSpace=wrap;html=1;aspect=fixed;fillColor=#f8cecc;strokeColor=#b85450;" vertex="1" parent="1">
          <mxGeometry x="40" y="770" width="80" height="80" as="geometry" />
        </mxCell>
        <mxCell id="ToCziA8nSgazayNwWKZx-4" value="Item2" style="ellipse;whiteSpace=wrap;html=1;aspect=fixed;fillColor=#f8cecc;strokeColor=#b85450;" vertex="1" parent="1">
          <mxGeometry x="40" y="870" width="80" height="80" as="geometry" />
        </mxCell>
        <mxCell id="ToCziA8nSgazayNwWKZx-5" value="Item3" style="ellipse;whiteSpace=wrap;html=1;aspect=fixed;" vertex="1" parent="1">
          <mxGeometry x="40" y="970" width="80" height="80" as="geometry" />
        </mxCell>
        <mxCell id="ToCziA8nSgazayNwWKZx-6" value="Item4" style="ellipse;whiteSpace=wrap;html=1;aspect=fixed;fillColor=#f8cecc;strokeColor=#b85450;" vertex="1" parent="1">
          <mxGeometry x="40" y="1070" width="80" height="80" as="geometry" />
        </mxCell>
        <mxCell id="ToCziA8nSgazayNwWKZx-7" value="" style="endArrow=classic;html=1;rounded=0;exitX=1;exitY=0.5;exitDx=0;exitDy=0;" edge="1" parent="1" source="ToCziA8nSgazayNwWKZx-2" target="ToCziA8nSgazayNwWKZx-8">
          <mxGeometry width="50" height="50" relative="1" as="geometry">
            <mxPoint x="310" y="850" as="sourcePoint" />
            <mxPoint x="260" y="760" as="targetPoint" />
          </mxGeometry>
        </mxCell>
        <mxCell id="ToCziA8nSgazayNwWKZx-8" value="IndexedName" style="ellipse;whiteSpace=wrap;html=1;aspect=fixed;" vertex="1" parent="1">
          <mxGeometry x="260" y="720" width="80" height="80" as="geometry" />
        </mxCell>
        <mxCell id="ToCziA8nSgazayNwWKZx-9" value="IndexedName" style="ellipse;whiteSpace=wrap;html=1;aspect=fixed;" vertex="1" parent="1">
          <mxGeometry x="260" y="820" width="80" height="80" as="geometry" />
        </mxCell>
        <mxCell id="ToCziA8nSgazayNwWKZx-10" value="" style="endArrow=classic;html=1;rounded=0;exitX=1;exitY=0.5;exitDx=0;exitDy=0;entryX=0;entryY=0.5;entryDx=0;entryDy=0;" edge="1" parent="1" source="ToCziA8nSgazayNwWKZx-3" target="ToCziA8nSgazayNwWKZx-9">
          <mxGeometry width="50" height="50" relative="1" as="geometry">
            <mxPoint x="310" y="850" as="sourcePoint" />
            <mxPoint x="360" y="800" as="targetPoint" />
          </mxGeometry>
        </mxCell>
        <mxCell id="ToCziA8nSgazayNwWKZx-11" value="" style="endArrow=classic;html=1;rounded=0;exitX=1;exitY=0.5;exitDx=0;exitDy=0;entryX=0;entryY=0.5;entryDx=0;entryDy=0;" edge="1" parent="1" source="ToCziA8nSgazayNwWKZx-4" target="ToCziA8nSgazayNwWKZx-9">
          <mxGeometry width="50" height="50" relative="1" as="geometry">
            <mxPoint x="310" y="850" as="sourcePoint" />
            <mxPoint x="360" y="800" as="targetPoint" />
          </mxGeometry>
        </mxCell>
        <mxCell id="ToCziA8nSgazayNwWKZx-12" value="IndexedName" style="ellipse;whiteSpace=wrap;html=1;aspect=fixed;" vertex="1" parent="1">
          <mxGeometry x="260" y="950" width="80" height="80" as="geometry" />
        </mxCell>
        <mxCell id="ToCziA8nSgazayNwWKZx-13" value="" style="endArrow=classic;html=1;rounded=0;exitX=1;exitY=0.5;exitDx=0;exitDy=0;entryX=0;entryY=0.5;entryDx=0;entryDy=0;" edge="1" parent="1" source="ToCziA8nSgazayNwWKZx-5" target="ToCziA8nSgazayNwWKZx-12">
          <mxGeometry width="50" height="50" relative="1" as="geometry">
            <mxPoint x="130" y="920" as="sourcePoint" />
            <mxPoint x="270" y="870" as="targetPoint" />
          </mxGeometry>
        </mxCell>
        <mxCell id="ToCziA8nSgazayNwWKZx-14" value="IndexedName" style="ellipse;whiteSpace=wrap;html=1;aspect=fixed;" vertex="1" parent="1">
          <mxGeometry x="260" y="1070" width="80" height="80" as="geometry" />
        </mxCell>
        <mxCell id="ToCziA8nSgazayNwWKZx-15" value="" style="endArrow=classic;html=1;rounded=0;exitX=1;exitY=0.5;exitDx=0;exitDy=0;entryX=0;entryY=0.5;entryDx=0;entryDy=0;" edge="1" parent="1" source="ToCziA8nSgazayNwWKZx-6" target="ToCziA8nSgazayNwWKZx-14">
          <mxGeometry width="50" height="50" relative="1" as="geometry">
            <mxPoint x="130" y="1020" as="sourcePoint" />
            <mxPoint x="270" y="1000" as="targetPoint" />
          </mxGeometry>
        </mxCell>
        <mxCell id="ToCziA8nSgazayNwWKZx-16" value="Concept" style="ellipse;whiteSpace=wrap;html=1;aspect=fixed;" vertex="1" parent="1">
          <mxGeometry x="440" y="670" width="80" height="80" as="geometry" />
        </mxCell>
        <mxCell id="ToCziA8nSgazayNwWKZx-17" value="Concept" style="ellipse;whiteSpace=wrap;html=1;aspect=fixed;" vertex="1" parent="1">
          <mxGeometry x="440" y="820" width="80" height="80" as="geometry" />
        </mxCell>
        <mxCell id="ToCziA8nSgazayNwWKZx-18" value="Concept" style="ellipse;whiteSpace=wrap;html=1;aspect=fixed;" vertex="1" parent="1">
          <mxGeometry x="440" y="940" width="80" height="80" as="geometry" />
        </mxCell>
        <mxCell id="ToCziA8nSgazayNwWKZx-19" value="Concept" style="ellipse;whiteSpace=wrap;html=1;aspect=fixed;" vertex="1" parent="1">
          <mxGeometry x="440" y="1070" width="80" height="80" as="geometry" />
        </mxCell>
        <mxCell id="ToCziA8nSgazayNwWKZx-20" value="" style="endArrow=classic;html=1;rounded=0;exitX=1;exitY=0.5;exitDx=0;exitDy=0;entryX=0;entryY=0.5;entryDx=0;entryDy=0;" edge="1" parent="1" source="ToCziA8nSgazayNwWKZx-9" target="ToCziA8nSgazayNwWKZx-17">
          <mxGeometry width="50" height="50" relative="1" as="geometry">
            <mxPoint x="130" y="820" as="sourcePoint" />
            <mxPoint x="270" y="870" as="targetPoint" />
          </mxGeometry>
        </mxCell>
        <mxCell id="ToCziA8nSgazayNwWKZx-21" value="" style="endArrow=classic;html=1;rounded=0;exitX=1;exitY=0.5;exitDx=0;exitDy=0;entryX=-0.012;entryY=0.613;entryDx=0;entryDy=0;entryPerimeter=0;" edge="1" parent="1" source="ToCziA8nSgazayNwWKZx-8" target="ToCziA8nSgazayNwWKZx-16">
          <mxGeometry width="50" height="50" relative="1" as="geometry">
            <mxPoint x="350" y="870" as="sourcePoint" />
            <mxPoint x="450" y="870" as="targetPoint" />
          </mxGeometry>
        </mxCell>
        <mxCell id="ToCziA8nSgazayNwWKZx-22" value="" style="endArrow=classic;html=1;rounded=0;exitX=1;exitY=0;exitDx=0;exitDy=0;" edge="1" parent="1" source="ToCziA8nSgazayNwWKZx-1" target="ToCziA8nSgazayNwWKZx-2">
          <mxGeometry width="50" height="50" relative="1" as="geometry">
            <mxPoint x="130" y="710" as="sourcePoint" />
            <mxPoint x="272.0526680779785" y="757.3508893593262" as="targetPoint" />
          </mxGeometry>
        </mxCell>
        <mxCell id="ToCziA8nSgazayNwWKZx-23" value="" style="endArrow=classic;html=1;rounded=0;exitX=1;exitY=0.5;exitDx=0;exitDy=0;entryX=0;entryY=0.5;entryDx=0;entryDy=0;" edge="1" parent="1" source="ToCziA8nSgazayNwWKZx-1" target="ToCziA8nSgazayNwWKZx-3">
          <mxGeometry width="50" height="50" relative="1" as="geometry">
            <mxPoint x="140" y="720" as="sourcePoint" />
            <mxPoint x="282.0526680779785" y="767.3508893593262" as="targetPoint" />
          </mxGeometry>
        </mxCell>
        <mxCell id="ToCziA8nSgazayNwWKZx-24" value="" style="endArrow=classic;html=1;rounded=0;exitX=1;exitY=1;exitDx=0;exitDy=0;entryX=0;entryY=0.5;entryDx=0;entryDy=0;" edge="1" parent="1" source="ToCziA8nSgazayNwWKZx-1" target="ToCziA8nSgazayNwWKZx-4">
          <mxGeometry width="50" height="50" relative="1" as="geometry">
            <mxPoint x="150" y="730" as="sourcePoint" />
            <mxPoint x="292.0526680779785" y="777.3508893593262" as="targetPoint" />
          </mxGeometry>
        </mxCell>
        <mxCell id="ToCziA8nSgazayNwWKZx-25" value="" style="endArrow=classic;html=1;rounded=0;exitX=1;exitY=1;exitDx=0;exitDy=0;entryX=0;entryY=0.5;entryDx=0;entryDy=0;" edge="1" parent="1" source="ToCziA8nSgazayNwWKZx-1" target="ToCziA8nSgazayNwWKZx-5">
          <mxGeometry width="50" height="50" relative="1" as="geometry">
            <mxPoint x="160" y="740" as="sourcePoint" />
            <mxPoint x="302.0526680779785" y="787.3508893593262" as="targetPoint" />
          </mxGeometry>
        </mxCell>
        <mxCell id="ToCziA8nSgazayNwWKZx-26" value="" style="endArrow=classic;html=1;rounded=0;exitX=0.5;exitY=1;exitDx=0;exitDy=0;entryX=0;entryY=0.5;entryDx=0;entryDy=0;" edge="1" parent="1" source="ToCziA8nSgazayNwWKZx-1" target="ToCziA8nSgazayNwWKZx-6">
          <mxGeometry width="50" height="50" relative="1" as="geometry">
            <mxPoint x="170" y="750" as="sourcePoint" />
            <mxPoint x="312.0526680779785" y="797.3508893593262" as="targetPoint" />
          </mxGeometry>
        </mxCell>
        <mxCell id="ToCziA8nSgazayNwWKZx-27" value="Rule1" style="ellipse;whiteSpace=wrap;html=1;aspect=fixed;" vertex="1" parent="1">
          <mxGeometry x="610" y="670" width="80" height="80" as="geometry" />
        </mxCell>
        <mxCell id="ToCziA8nSgazayNwWKZx-28" value="Rule2" style="ellipse;whiteSpace=wrap;html=1;aspect=fixed;" vertex="1" parent="1">
          <mxGeometry x="620" y="1070" width="80" height="80" as="geometry" />
        </mxCell>
        <mxCell id="ToCziA8nSgazayNwWKZx-29" value="" style="endArrow=classic;html=1;rounded=0;exitX=1;exitY=0.5;exitDx=0;exitDy=0;" edge="1" parent="1" source="ToCziA8nSgazayNwWKZx-12" target="ToCziA8nSgazayNwWKZx-18">
          <mxGeometry width="50" height="50" relative="1" as="geometry">
            <mxPoint x="350" y="870" as="sourcePoint" />
            <mxPoint x="450" y="870" as="targetPoint" />
          </mxGeometry>
        </mxCell>
        <mxCell id="ToCziA8nSgazayNwWKZx-30" value="" style="endArrow=classic;html=1;rounded=0;exitX=1;exitY=0.5;exitDx=0;exitDy=0;entryX=0;entryY=0.5;entryDx=0;entryDy=0;" edge="1" parent="1" source="ToCziA8nSgazayNwWKZx-14" target="ToCziA8nSgazayNwWKZx-19">
          <mxGeometry width="50" height="50" relative="1" as="geometry">
            <mxPoint x="350" y="1000" as="sourcePoint" />
            <mxPoint x="450.101652006771" y="992.8498819995161" as="targetPoint" />
          </mxGeometry>
        </mxCell>
        <mxCell id="ToCziA8nSgazayNwWKZx-31" value="" style="endArrow=classic;html=1;rounded=0;exitX=1;exitY=0.5;exitDx=0;exitDy=0;entryX=0;entryY=0.5;entryDx=0;entryDy=0;" edge="1" parent="1" source="ToCziA8nSgazayNwWKZx-16" target="ToCziA8nSgazayNwWKZx-27">
          <mxGeometry width="50" height="50" relative="1" as="geometry">
            <mxPoint x="360" y="1010" as="sourcePoint" />
            <mxPoint x="460.101652006771" y="1002.8498819995161" as="targetPoint" />
          </mxGeometry>
        </mxCell>
        <mxCell id="ToCziA8nSgazayNwWKZx-32" value="" style="endArrow=classic;html=1;rounded=0;entryX=0;entryY=1;entryDx=0;entryDy=0;" edge="1" parent="1" target="ToCziA8nSgazayNwWKZx-27">
          <mxGeometry width="50" height="50" relative="1" as="geometry">
            <mxPoint x="520" y="860" as="sourcePoint" />
            <mxPoint x="470.101652006771" y="1012.8498819995161" as="targetPoint" />
          </mxGeometry>
        </mxCell>
        <mxCell id="ToCziA8nSgazayNwWKZx-33" value="" style="endArrow=classic;html=1;rounded=0;exitX=1;exitY=0.5;exitDx=0;exitDy=0;entryX=0;entryY=0.5;entryDx=0;entryDy=0;" edge="1" parent="1" source="ToCziA8nSgazayNwWKZx-19" target="ToCziA8nSgazayNwWKZx-28">
          <mxGeometry width="50" height="50" relative="1" as="geometry">
            <mxPoint x="380" y="1030" as="sourcePoint" />
            <mxPoint x="480.101652006771" y="1022.8498819995161" as="targetPoint" />
          </mxGeometry>
        </mxCell>
      </root>
    </mxGraphModel>
  </diagram>
</mxfile>
